# armorpaint.org
o Cube
v -3.507397 67.130821 202.440903
v -3.507397 223.055344 202.440903
v -3.507397 223.055344 124.531441
v -3.507397 67.130821 124.531441
v 196.482101 67.130821 48.258762
v 196.482101 223.055344 48.258762
v 196.482101 223.055344 124.531441
v 196.482101 67.130821 124.531441
v 196.482101 223.055344 202.440903
v 196.482101 67.130821 202.440903
v -3.507397 223.055344 48.258762
v -3.507397 67.130821 48.258762
v 175.218979 223.055344 224.503555
v 179.903046 226.600449 225.257843
v 97.467911 226.600449 225.257843
v 97.437744 223.055344 224.503555
v -9.526542 226.600449 124.531441
v -9.526542 226.600449 47.677967
v 175.218979 67.130821 24.498978
v 179.903046 63.70639 23.737156
v 97.467911 63.70639 23.737156
v 97.437744 67.130821 24.498978
v 202.440903 226.600449 203.029236
v 202.440903 63.70639 203.029236
v -9.526542 63.70639 124.531441
v -9.526542 63.70639 203.029236
v 175.218979 42.722355 202.440903
v 179.903046 38.211765 203.029236
v 97.467911 38.211765 203.029236
v 97.437744 42.722355 202.440903
v 202.440903 226.600449 124.531441
v -9.526542 226.600449 203.029236
v 19.656507 242.726929 202.440903
v 19.656507 242.726929 124.531441
v 15.025235 247.154556 124.531441
v 15.025235 247.154556 203.029236
v 202.440903 63.70639 124.531441
v 202.440903 63.70639 47.677967
v 175.218979 42.722355 48.258762
v 97.437744 42.722355 48.258762
v 97.467911 38.211765 47.677967
v 179.903046 38.211765 47.677967
v 202.440903 226.600449 47.677967
v -9.526542 63.70639 47.677967
v 97.437744 223.055344 24.498978
v 175.218979 223.055344 24.498978
v 175.218979 42.722355 124.531441
v 97.437744 42.722355 124.531441
v 19.656507 242.726929 48.258762
v 15.025235 247.147003 47.677967
v 97.467911 226.600449 23.737156
v 179.903046 226.600449 23.737156
v 19.656507 223.055344 224.503555
v 15.025235 226.600449 225.257843
v 15.025235 63.70639 225.257843
v 19.656507 67.130821 224.503555
v 19.656507 67.130821 24.498978
v 15.025235 63.70639 23.737156
v 179.903046 38.211765 124.531441
v 19.656507 223.055344 24.498978
v 15.025235 226.600449 23.737156
v 97.467911 63.70639 225.257843
v 97.437744 67.130821 224.503555
v 175.218979 242.726929 202.440903
v 97.437744 242.726929 202.440903
v 97.467911 247.154556 203.029236
v 179.903046 247.154556 203.029236
v 179.903046 247.154556 124.531441
v 175.218979 242.726929 124.531441
v 19.656507 42.722355 48.258762
v 19.656507 42.722355 124.531441
v 15.025235 38.211765 124.531441
v 15.025235 38.211765 47.677967
v 97.437744 242.726929 124.531441
v 97.437744 242.726929 48.258762
v 175.218979 242.726929 48.258762
v 179.903046 247.147003 47.677967
v 97.467911 247.147003 47.677967
v 19.656507 42.722355 202.440903
v 15.025235 38.211765 203.029236
v 175.218979 67.130821 224.503555
v 179.903046 63.70639 225.257843
v -9.526542 247.154556 203.029236
v -9.526542 247.154556 225.257843
v 15.025235 247.154556 225.257843
v -9.526542 226.600449 225.257843
v -9.526542 247.147003 47.677967
v -9.526542 247.147003 23.737156
v -9.526542 226.600449 23.737156
v 202.440903 38.211765 203.029236
v 202.440903 38.211765 225.257843
v 179.903046 38.211765 225.257843
v 202.440903 247.154556 203.029236
v 202.440903 247.154556 225.257843
v 202.440903 226.600449 225.257843
v 179.903046 247.147003 23.737156
v 202.440903 247.147003 23.737156
v 202.440903 226.600449 23.737156
v 202.440903 247.147003 47.677967
v 179.903046 38.211765 23.737156
v 202.440903 38.211765 23.737156
v 202.440903 38.211765 47.677967
v -9.526542 247.154556 124.531441
v 15.025235 247.147003 23.737156
v 202.440903 247.154556 124.531441
v 202.440903 38.211765 124.531441
v -9.526542 63.70639 225.257843
v 202.440903 63.70639 23.737156
v 202.440903 63.70639 225.257843
v -9.526542 63.70639 23.737156
v 15.025235 38.211765 225.257843
v -9.526542 38.211765 225.257843
v -9.526542 38.211765 47.677967
v -9.526542 38.211765 23.737156
v -9.526542 38.211765 124.531441
v -9.526542 38.211765 203.029236
v 97.467911 38.211765 23.737156
v 97.467911 247.147003 23.737156
v 97.467911 38.211765 225.257843
v 179.903046 247.154556 225.257843
v 15.025235 38.211765 23.737156
v 97.467911 247.154556 225.257843
vn -0.00998 0 0
vn 0.00998 0 0
vn 0 -0.002075 0.009766
vn -0.005066 -0.008606 0
vn 0 0.002167 -0.009735
vn 0.000977 0 -0.009949
vn -0.004944 0.008667 0
vn 0 -0.001282 -0.009888
vn 0.005097 -0.008576 0
vn -0.000946 0 -0.009949
vn 0.006897 0.007202 0
vn 0.004975 0.008667 0
vn 0 -0.001251 0.009888
vn -0.000946 0 0.009949
vn 0 0 -0.00998
vn 0 -0.00998 0
vn 0 -0.002075 -0.009766
vn 0.000946 0 0.009949
vn 0.001587 0 0.009857
vn -0.006928 -0.007172 0
vn 0 0.002136 0.009735
vn 0 0.001312 -0.009888
vn 0.001617 0 -0.009857
vn -0.006867 0.007263 0
vn 0.006958 -0.007141 0
vn 0 0 0.00998
vn 0 0.00998 0
vn 0 0.001282 0.009888
vn -0.001587 0 -0.009857
vn -0.001587 0 0.009857
vt 0.037507 0.952849
vt 0.037507 0.709342
vt 0.159185 0.709342
vt 0.159185 0.952849
vt 0.60033 0.716849
vt 0.60033 0.960387
vt 0.481216 0.960387
vt 0.481216 0.716849
vt 0.359539 0.960387
vt 0.359539 0.716849
vt 0.278298 0.709342
vt 0.278298 0.952849
vt 0.290567 0.044527
vt 0.296091 0.037202
vt 0.296091 0.16596
vt 0.290567 0.16599
vt 0.159185 0.703787
vt 0.279214 0.703787
vt 0.616138 0.044527
vt 0.621479 0.037202
vt 0.621479 0.16596
vt 0.616138 0.16599
vt 0.697501 0.677236
vt 0.706809 0.671712
vt 0.706809 0.926115
vt 0.697501 0.920774
vt 0.773461 0.672628
vt 0.773461 0.794305
vt 0.764092 0.794305
vt 0.764092 0.671712
vt 0.645711 0.679006
vt 0.65276 0.671712
vt 0.65276 0.800439
vt 0.645711 0.800501
vt 0.481216 0.965941
vt 0.358592 0.965941
vt 0.723533 0.677236
vt 0.723533 0.920774
vt 0.714133 0.926115
vt 0.714133 0.671712
vt 0.66802 0.622333
vt 0.789697 0.622333
vt 0.789697 0.629566
vt 0.667074 0.629566
vt 0.780725 0.913419
vt 0.780725 0.794305
vt 0.790033 0.794305
vt 0.790033 0.914335
vt 0.6657 0.679006
vt 0.6657 0.800501
vt 0.65865 0.800439
vt 0.65865 0.671712
vt 0.601215 0.965941
vt 0.740196 0.92056
vt 0.730796 0.926115
vt 0.730796 0.671712
vt 0.740196 0.677053
vt 0.372631 0.16599
vt 0.372631 0.044527
vt 0.350108 0.379376
vt 0.469222 0.379376
vt 0.469222 0.500839
vt 0.350108 0.500839
vt 0.908811 0.622333
vt 0.909726 0.629566
vt 0.780725 0.672628
vt 0.790033 0.671712
vt 0.590899 0.379376
vt 0.590899 0.500839
vt 0.036592 0.703787
vt 0.367077 0.16596
vt 0.367077 0.037202
vt 0.747429 0.92056
vt 0.747429 0.677053
vt 0.756737 0.671712
vt 0.756737 0.926115
vt 0.290567 0.287484
vt 0.296091 0.294717
vt 0.041688 0.294717
vt 0.047029 0.287484
vt 0.773461 0.913419
vt 0.764092 0.914335
vt 0.616138 0.287484
vt 0.621479 0.294717
vt 0.469222 0.372051
vt 0.591845 0.372051
vt 0.372631 0.287484
vt 0.367077 0.294717
vt 0.041688 0.16596
vt 0.047029 0.16599
vt 0.678518 0.679006
vt 0.678518 0.800501
vt 0.67159 0.800439
vt 0.67159 0.671712
vt 0.66802 0.379376
vt 0.667074 0.372051
vt 0.789697 0.372051
vt 0.789697 0.379376
vt 0.350108 0.622333
vt 0.469222 0.622333
vt 0.469222 0.629566
vt 0.349193 0.629566
vt 0.789697 0.500839
vt 0.908811 0.500839
vt 0.66802 0.500839
vt 0.908811 0.379376
vt 0.909726 0.372051
vt 0.678518 0.921964
vt 0.67159 0.929197
vt 0.684561 0.679006
vt 0.691458 0.671682
vt 0.691458 0.800439
vt 0.684561 0.800501
vt 0.590899 0.622333
vt 0.591845 0.629566
vt 0.349193 0.372051
vt 0.684561 0.921964
vt 0.691458 0.929197
vt 0.047029 0.044527
vt 0.645711 0.921964
vt 0.65276 0.929197
vt 0.6657 0.921964
vt 0.65865 0.929197
vt 0.041688 0.037202
vt 0.667074 0.667898
vt 0.632374 0.667898
vt 0.632374 0.629566
vt 0.328196 0.294717
vt 0.328196 0.333079
vt 0.296091 0.333079
vt 0.279214 0.671712
vt 0.316599 0.671712
vt 0.316599 0.703787
vt 0.591845 0.336863
vt 0.626545 0.336863
vt 0.626545 0.372051
vt 0.358592 0.998016
vt 0.323893 0.998016
vt 0.323893 0.965941
vt 0.334971 0.037202
vt 0.334971 0.002014
vt 0.367077 0.002014
vt 0.63863 0.965941
vt 0.63863 0.998016
vt 0.601215 0.998016
vt 0.311808 0.372051
vt 0.311808 0.336863
vt 0.349193 0.336863
vt 0.159185 0.671712
vt 0.947111 0.629566
vt 0.947111 0.667898
vt 0.909726 0.667898
vt 0.001862 0.703787
vt 0.001862 0.671712
vt 0.036592 0.671712
vt 0.481216 0.998016
vt 0.469222 0.336863
vt 0.789697 0.667898
vt 0.001862 0.95819
vt 0.036592 0.95819
vt 0.63863 0.711509
vt 0.601215 0.711509
vt 0.621479 0.002014
vt 0.358592 0.711509
vt 0.323893 0.711509
vt 0.279214 0.95819
vt 0.316599 0.95819
vt 0.041688 0.333079
vt 0.001862 0.294717
vt 0.001862 0.333079
vt 0.279214 0.998016
vt 0.316599 0.998016
vt 0.358592 0.671712
vt 0.323893 0.671712
vt 0.661306 0.037202
vt 0.661306 0.002014
vt 0.63863 0.671712
vt 0.601215 0.671712
vt 0.159185 0.998016
vt 0.159185 0.95819
vt 0.001862 0.998016
vt 0.036592 0.998016
vt 0.481216 0.671712
vt 0.481216 0.711509
vt 0.661306 0.16596
vt 0.041688 0.002014
vt 0.001862 0.037202
vt 0.001862 0.002014
vt 0.296091 0.002014
vt 0.789697 0.336863
vt 0.909726 0.336863
vt 0.667074 0.336863
vt 0.947111 0.372051
vt 0.947111 0.336863
vt 0.311808 0.500809
vt 0.349193 0.500809
vt 0.334971 0.16596
vt 0.591845 0.500809
vt 0.626545 0.500809
vt 0.328196 0.002014
vt 0.328196 0.037202
vt 0.632374 0.372051
vt 0.632374 0.336863
vt 0.591845 0.667898
vt 0.626545 0.629566
vt 0.626545 0.667898
vt 0.367077 0.333079
vt 0.334971 0.333079
vt 0.334971 0.294717
vt 0.311808 0.667898
vt 0.311808 0.629566
vt 0.349193 0.667898
vt 0.469222 0.667898
vt 0.621479 0.333079
vt 0.661306 0.333079
vt 0.661306 0.294717
vt 0.001862 0.16596
vt 0.947111 0.500809
vt 0.909726 0.500809
vt 0.328196 0.16596
vt 0.667074 0.500809
vt 0.632374 0.500809
f 1/1/1 2/2/1 3/3/1
f 3/3/1 4/4/1 1/1/1
f 5/5/2 6/6/2 7/7/2
f 7/7/2 8/8/2 5/5/2
f 8/8/2 7/7/2 9/9/2
f 9/9/2 10/10/2 8/8/2
f 4/4/1 3/3/1 11/11/1
f 11/11/1 12/12/1 4/4/1
f 13/13/3 14/14/3 15/15/3
f 15/15/3 16/16/3 13/13/3
f 11/11/4 3/3/4 17/17/4
f 17/17/4 18/18/4 11/11/4
f 19/19/5 20/20/5 21/21/5
f 21/21/5 22/22/5 19/19/5
f 9/23/6 23/24/6 24/25/6
f 24/25/6 10/26/6 9/23/6
f 1/27/7 4/28/7 25/29/7
f 25/29/7 26/30/7 1/27/7
f 27/31/8 28/32/8 29/33/8
f 29/33/8 30/34/8 27/31/8
f 9/9/9 7/7/9 31/35/9
f 31/35/9 23/36/9 9/9/9
f 2/37/10 1/38/10 26/39/10
f 26/39/10 32/40/10 2/37/10
f 33/41/11 34/42/11 35/43/11
f 35/43/11 36/44/11 33/41/11
f 5/45/12 8/46/12 37/47/12
f 37/47/12 38/48/12 5/45/12
f 39/49/13 40/50/13 41/51/13
f 41/51/13 42/52/13 39/49/13
f 6/6/9 43/53/9 31/35/9
f 31/35/9 7/7/9 6/6/9
f 11/54/14 18/55/14 44/56/14
f 44/56/14 12/57/14 11/54/14
f 22/22/15 45/58/15 46/59/15
f 46/59/15 19/19/15 22/22/15
f 39/60/16 47/61/16 48/62/16
f 48/62/16 40/63/16 39/60/16
f 49/64/11 50/65/11 35/43/11
f 35/43/11 34/42/11 49/64/11
f 10/66/12 24/67/12 37/47/12
f 37/47/12 8/46/12 10/66/12
f 47/61/16 27/68/16 30/69/16
f 30/69/16 48/62/16 47/61/16
f 2/2/4 32/70/4 17/17/4
f 17/17/4 3/3/4 2/2/4
f 46/59/17 45/58/17 51/71/17
f 51/71/17 52/72/17 46/59/17
f 6/73/18 5/74/18 38/75/18
f 38/75/18 43/76/18 6/73/18
f 53/77/19 54/78/19 55/79/19
f 55/79/19 56/80/19 53/77/19
f 12/81/7 44/82/7 25/29/7
f 25/29/7 4/28/7 12/81/7
f 57/83/5 22/22/5 21/21/5
f 21/21/5 58/84/5 57/83/5
f 27/68/20 47/61/20 59/85/20
f 59/85/20 28/86/20 27/68/20
f 60/87/17 61/88/17 51/71/17
f 51/71/17 45/58/17 60/87/17
f 56/80/21 55/79/21 62/89/21
f 62/89/21 63/90/21 56/80/21
f 64/91/22 65/92/22 66/93/22
f 66/93/22 67/94/22 64/91/22
f 60/87/23 57/83/23 58/84/23
f 58/84/23 61/88/23 60/87/23
f 64/95/24 67/96/24 68/97/24
f 68/97/24 69/98/24 64/95/24
f 53/77/3 16/16/3 15/15/3
f 15/15/3 54/78/3 53/77/3
f 70/99/25 71/100/25 72/101/25
f 72/101/25 73/102/25 70/99/25
f 63/90/26 16/16/26 53/77/26
f 53/77/26 56/80/26 63/90/26
f 49/64/27 34/42/27 74/103/27
f 74/103/27 75/104/27 49/64/27
f 34/42/27 33/41/27 65/105/27
f 65/105/27 74/103/27 34/42/27
f 76/106/24 69/98/24 68/97/24
f 68/97/24 77/107/24 76/106/24
f 33/108/22 36/109/22 66/93/22
f 66/93/22 65/92/22 33/108/22
f 76/110/28 77/111/28 78/112/28
f 78/112/28 75/113/28 76/110/28
f 79/114/25 80/115/25 72/101/25
f 72/101/25 71/100/25 79/114/25
f 39/60/20 42/116/20 59/85/20
f 59/85/20 47/61/20 39/60/20
f 49/117/28 75/113/28 78/112/28
f 78/112/28 50/118/28 49/117/28
f 74/103/27 65/105/27 64/95/27
f 64/95/27 69/98/27 74/103/27
f 75/104/27 74/103/27 69/98/27
f 69/98/27 76/106/27 75/104/27
f 13/13/26 16/16/26 63/90/26
f 63/90/26 81/119/26 13/13/26
f 79/120/8 30/34/8 29/33/8
f 29/33/8 80/121/8 79/120/8
f 46/59/29 52/72/29 20/20/29
f 20/20/29 19/19/29 46/59/29
f 70/122/13 73/123/13 41/51/13
f 41/51/13 40/50/13 70/122/13
f 13/13/30 81/119/30 82/124/30
f 82/124/30 14/14/30 13/13/30
f 48/62/16 30/69/16 79/114/16
f 79/114/16 71/100/16 48/62/16
f 40/63/16 48/62/16 71/100/16
f 71/100/16 70/99/16 40/63/16
f 57/83/15 60/87/15 45/58/15
f 45/58/15 22/22/15 57/83/15
f 81/119/21 63/90/21 62/89/21
f 62/89/21 82/124/21 81/119/21
f 36/44/27 83/125/27 84/126/27
f 84/126/27 85/127/27 36/44/27
f 54/78/26 85/128/26 84/129/26
f 84/129/26 86/130/26 54/78/26
f 18/18/1 87/131/1 88/132/1
f 88/132/1 89/133/1 18/18/1
f 28/86/16 90/134/16 91/135/16
f 91/135/16 92/136/16 28/86/16
f 23/36/2 93/137/2 94/138/2
f 94/138/2 95/139/2 23/36/2
f 52/72/15 96/140/15 97/141/15
f 97/141/15 98/142/15 52/72/15
f 98/143/2 97/144/2 99/145/2
f 99/145/2 43/53/2 98/143/2
f 100/146/16 101/147/16 102/148/16
f 102/148/16 42/116/16 100/146/16
f 17/17/1 103/149/1 87/131/1
f 87/131/1 18/18/1 17/17/1
f 104/150/27 88/151/27 87/152/27
f 87/152/27 50/65/27 104/150/27
f 86/153/1 84/154/1 83/155/1
f 83/155/1 32/70/1 86/153/1
f 31/35/2 105/156/2 93/137/2
f 93/137/2 23/36/2 31/35/2
f 106/157/16 90/134/16 28/86/16
f 28/86/16 59/85/16 106/157/16
f 103/158/27 83/125/27 36/44/27
f 36/44/27 35/43/27 103/158/27
f 87/152/27 103/158/27 35/43/27
f 35/43/27 50/65/27 87/152/27
f 102/148/16 106/157/16 59/85/16
f 59/85/16 42/116/16 102/148/16
f 99/145/2 105/156/2 31/35/2
f 31/35/2 43/53/2 99/145/2
f 32/70/1 83/155/1 103/149/1
f 103/149/1 17/17/1 32/70/1
f 107/159/1 86/153/1 32/70/1
f 32/70/1 26/160/1 107/159/1
f 108/161/2 98/143/2 43/53/2
f 43/53/2 38/162/2 108/161/2
f 20/20/15 52/72/15 98/142/15
f 98/142/15 108/163/15 20/20/15
f 24/164/2 23/36/2 95/139/2
f 95/139/2 109/165/2 24/164/2
f 44/166/1 18/18/1 89/133/1
f 89/133/1 110/167/1 44/166/1
f 55/79/26 54/78/26 86/130/26
f 86/130/26 107/168/26 55/79/26
f 111/169/26 55/79/26 107/168/26
f 107/168/26 112/170/26 111/169/26
f 113/171/1 44/166/1 110/167/1
f 110/167/1 114/172/1 113/171/1
f 90/173/2 24/164/2 109/165/2
f 109/165/2 91/174/2 90/173/2
f 100/175/15 20/20/15 108/163/15
f 108/163/15 101/176/15 100/175/15
f 101/177/2 108/161/2 38/162/2
f 38/162/2 102/178/2 101/177/2
f 115/179/1 25/180/1 44/166/1
f 44/166/1 113/171/1 115/179/1
f 112/181/1 107/159/1 26/160/1
f 26/160/1 116/182/1 112/181/1
f 106/183/2 37/184/2 24/164/2
f 24/164/2 90/173/2 106/183/2
f 38/162/2 37/184/2 106/183/2
f 106/183/2 102/178/2 38/162/2
f 116/182/1 26/160/1 25/180/1
f 25/180/1 115/179/1 116/182/1
f 117/185/15 21/21/15 20/20/15
f 20/20/15 100/175/15 117/185/15
f 109/186/26 82/124/26 92/187/26
f 92/187/26 91/188/26 109/186/26
f 95/189/26 14/14/26 82/124/26
f 82/124/26 109/186/26 95/189/26
f 77/107/27 68/97/27 105/190/27
f 105/190/27 99/191/27 77/107/27
f 68/97/27 67/96/27 93/192/27
f 93/192/27 105/190/27 68/97/27
f 96/193/27 77/107/27 99/191/27
f 99/191/27 97/194/27 96/193/27
f 117/195/16 100/146/16 42/116/16
f 42/116/16 41/196/16 117/195/16
f 51/71/15 118/197/15 96/140/15
f 96/140/15 52/72/15 51/71/15
f 29/198/16 28/86/16 92/136/16
f 92/136/16 119/199/16 29/198/16
f 95/189/26 94/200/26 120/201/26
f 120/201/26 14/14/26 95/189/26
f 93/192/27 67/96/27 120/202/27
f 120/202/27 94/203/27 93/192/27
f 116/204/16 80/115/16 111/205/16
f 111/205/16 112/206/16 116/204/16
f 89/207/15 88/208/15 104/209/15
f 104/209/15 61/88/15 89/207/15
f 114/210/16 121/211/16 73/102/16
f 73/102/16 113/212/16 114/210/16
f 72/101/16 80/115/16 116/204/16
f 116/204/16 115/213/16 72/101/16
f 73/102/16 72/101/16 115/213/16
f 115/213/16 113/212/16 73/102/16
f 110/214/15 89/207/15 61/88/15
f 61/88/15 58/84/15 110/214/15
f 114/215/15 110/214/15 58/84/15
f 58/84/15 121/216/15 114/215/15
f 119/217/26 62/89/26 55/79/26
f 55/79/26 111/169/26 119/217/26
f 118/218/27 104/150/27 50/65/27
f 50/65/27 78/219/27 118/218/27
f 15/15/26 122/220/26 85/128/26
f 85/128/26 54/78/26 15/15/26
f 66/221/27 36/44/27 85/127/27
f 85/127/27 122/222/27 66/221/27
f 67/96/27 66/221/27 122/222/27
f 122/222/27 120/202/27 67/96/27
f 14/14/26 120/201/26 122/220/26
f 122/220/26 15/15/26 14/14/26
f 118/218/27 78/219/27 77/107/27
f 77/107/27 96/193/27 118/218/27
f 82/124/26 62/89/26 119/217/26
f 119/217/26 92/187/26 82/124/26
f 80/115/16 29/198/16 119/199/16
f 119/199/16 111/205/16 80/115/16
f 61/88/15 104/209/15 118/197/15
f 118/197/15 51/71/15 61/88/15
f 121/211/16 117/195/16 41/196/16
f 41/196/16 73/102/16 121/211/16
f 121/216/15 58/84/15 21/21/15
f 21/21/15 117/185/15 121/216/15
